<svg width="32" height="32" viewBox="0 0 32 32" fill="none" xmlns="http://www.w3.org/2000/svg">
<path d="M10.6663 16.6667L13.9997 20L21.333 12M9.59967 26.6667H22.3997C23.8931 26.6667 24.6399 26.6667 25.2103 26.376C25.7121 26.1204 26.1201 25.7124 26.3757 25.2107C26.6663 24.6403 26.6663 23.8935 26.6663 22.4V9.59999C26.6663 8.10653 26.6663 7.35978 26.3757 6.78936C26.1201 6.28758 25.7121 5.87963 25.2103 5.62398C24.6399 5.33333 23.8931 5.33333 22.3997 5.33333H9.59967C8.10621 5.33333 7.35946 5.33333 6.78903 5.62398C6.28726 5.87963 5.87931 6.28758 5.62366 6.78936C5.33301 7.35978 5.33301 8.10651 5.33301 9.59999V22.4C5.33301 23.8935 5.33301 24.6403 5.62366 25.2107C5.87931 25.7124 6.28726 26.1204 6.78903 26.376C7.35946 26.6667 8.10619 26.6667 9.59967 26.6667Z" stroke="#1D1C1B" stroke-width="1.3" stroke-linecap="round" stroke-linejoin="round"/>
</svg>
