<svg width="24" height="24" viewBox="0 0 24 24" fill="none" xmlns="http://www.w3.org/2000/svg">
<path d="M3.88871 18.1313L9 12M20.1132 18.1294L15 12M3.02878 7.99999L10.255 12.8225C10.8953 13.2481 11.2155 13.4609 11.5614 13.5436C11.8671 13.6167 12.1858 13.6167 12.4915 13.5436C12.8374 13.4609 13.1575 13.2481 13.7979 12.8225L20.9712 7.99999M7.8 19H16.2C17.8802 19 18.7202 19 19.362 18.673C19.9265 18.3854 20.3854 17.9265 20.673 17.362C21 16.7202 21 15.8802 21 14.2V9.8C21 8.11984 21 7.27976 20.673 6.63803C20.3854 6.07354 19.9265 5.6146 19.362 5.32698C18.7202 5 17.8802 5 16.2 5H7.8C6.11984 5 5.27976 5 4.63803 5.32698C4.07354 5.6146 3.6146 6.07354 3.32698 6.63803C3 7.27976 3 8.11984 3 9.8V14.2C3 15.8802 3 16.7202 3.32698 17.362C3.6146 17.9265 4.07354 18.3854 4.63803 18.673C5.27976 19 6.11984 19 7.8 19Z" stroke="#1D1C1B" stroke-width="1.3" stroke-linecap="round" stroke-linejoin="round"/>
</svg>
