<svg width="24" height="24" viewBox="0 0 24 24" fill="none" xmlns="http://www.w3.org/2000/svg">
<path d="M17.3001 9.6C17.6315 9.15817 17.5419 8.53137 17.1001 8.2C16.6583 7.86863 16.0315 7.95817 15.7001 8.4L13.3919 11.4776L11.2072 9.29289C11.0022 9.08791 10.7184 8.98197 10.4292 9.00252C10.14 9.02307 9.87399 9.16809 9.70006 9.4L6.70006 13.4C6.36869 13.8418 6.45823 14.4686 6.90006 14.8C7.34189 15.1314 7.96869 15.0418 8.30006 14.6L10.6083 11.5224L12.793 13.7071C12.998 13.9121 13.2818 14.018 13.571 13.9975C13.8602 13.9769 14.1262 13.8319 14.3001 13.6L17.3001 9.6Z" fill="#1D1C1B"/>
<path fill-rule="evenodd" clip-rule="evenodd" d="M12 23C10.7764 23 10.0994 22.8687 9 22.5L6.89443 23.5528C5.56462 24.2177 4 23.2507 4 21.7639V19.5C1.84655 17.492 1 15.1767 1 12C1 5.92487 5.92487 1 12 1C18.0751 1 23 5.92487 23 12C23 18.0751 18.0751 23 12 23ZM6 18.6303L5.36395 18.0372C3.69087 16.4772 3 14.7331 3 12C3 7.02944 7.02944 3 12 3C16.9706 3 21 7.02944 21 12C21 16.9706 16.9706 21 12 21C11.0143 21 10.552 20.911 9.63595 20.6038L8.84847 20.3397L6 21.7639V18.6303Z" fill="#1D1C1B"/>
</svg>
