<svg width="110" height="28" viewBox="0 0 110 28" fill="none" xmlns="http://www.w3.org/2000/svg">
<path d="M7.5181 15.7703C6.11298 15.7703 4.83823 15.4891 3.69386 14.9266C2.56397 14.3497 1.66586 13.4988 0.999515 12.3739C0.333172 11.249 0 9.87175 0 8.24208C0 7.0018 0.2028 5.91295 0.608401 4.97553C1.014 4.03811 1.56446 3.25212 2.25977 2.61756C2.96957 1.983 3.78078 1.50708 4.69338 1.1898C5.62046 0.872521 6.59825 0.713881 7.62674 0.713881C8.45242 0.713881 9.21293 0.807623 9.90824 0.995107C10.6036 1.18259 11.2554 1.44218 11.8638 1.77389L11.9507 4.43471H11.7334L10.647 2.70409C10.5022 2.43008 10.3428 2.18491 10.169 1.96858C9.99515 1.73783 9.77787 1.56477 9.51713 1.44939C9.29984 1.34844 9.08255 1.27633 8.86527 1.23307C8.66247 1.17538 8.40172 1.14654 8.08304 1.14654C7.24287 1.14654 6.47512 1.37007 5.77981 1.81715C5.09898 2.26423 4.54852 3.00695 4.12843 4.04533C3.72283 5.06928 3.52003 6.47541 3.52003 8.26371C3.52003 10.0376 3.71559 11.4437 4.10671 12.4821C4.49782 13.5061 5.02655 14.2416 5.69289 14.6886C6.37372 15.1213 7.13422 15.3376 7.9744 15.3376C8.43794 15.3376 8.80732 15.3088 9.08255 15.2511C9.35778 15.179 9.63301 15.078 9.90824 14.9482C10.1835 14.8329 10.3935 14.667 10.5384 14.4507C10.6832 14.2199 10.8136 13.9748 10.9295 13.7152L11.8855 11.5952H12.1028L12.0376 14.6886C11.4292 15.0059 10.7484 15.2655 9.99515 15.4674C9.2419 15.6693 8.41621 15.7703 7.5181 15.7703Z" fill="white"/>
<path d="M18.5897 15.7054C17.4887 15.7054 16.5327 15.4818 15.7215 15.0348C14.9103 14.5733 14.2802 13.9243 13.8311 13.0878C13.3965 12.2514 13.1792 11.2707 13.1792 10.1458C13.1792 9.02086 13.411 8.04739 13.8746 7.22534C14.3526 6.4033 14.9972 5.76874 15.8084 5.32166C16.6341 4.87458 17.5612 4.65104 18.5897 4.65104C19.6182 4.65104 20.538 4.87458 21.3492 5.32166C22.1604 5.75431 22.7978 6.38166 23.2613 7.20371C23.7393 8.02575 23.9784 9.00644 23.9784 10.1458C23.9784 11.2851 23.7538 12.273 23.3048 13.1095C22.8702 13.9315 22.2473 14.5733 21.4361 15.0348C20.6394 15.4818 19.6906 15.7054 18.5897 15.7054ZM18.5897 15.2727C19.0967 15.2727 19.5023 15.1285 19.8065 14.8401C20.1107 14.5516 20.328 14.0397 20.4583 13.3041C20.6032 12.5686 20.6756 11.5303 20.6756 10.189C20.6756 8.83338 20.6032 7.78779 20.4583 7.05228C20.328 6.31677 20.1107 5.80479 19.8065 5.51635C19.5023 5.22792 19.0967 5.0837 18.5897 5.0837C18.0827 5.0837 17.6698 5.22792 17.3511 5.51635C17.0469 5.80479 16.8224 6.31677 16.6775 7.05228C16.5472 7.78779 16.482 8.83338 16.482 10.189C16.482 11.5303 16.5472 12.5686 16.6775 13.3041C16.8224 14.0397 17.0469 14.5516 17.3511 14.8401C17.6698 15.1285 18.0827 15.2727 18.5897 15.2727Z" fill="white"/>
<path d="M24.9327 15.3809V15.1646L25.2369 15.078C25.5121 15.0059 25.7005 14.8833 25.8019 14.7103C25.9177 14.5372 25.9829 14.3065 25.9974 14.018V7.24697C25.9974 6.92969 25.9467 6.69894 25.8453 6.55473C25.7439 6.39609 25.5484 6.28792 25.2586 6.23023L24.9327 6.1437V5.92738L28.6483 4.67268L28.8656 4.889L29.0394 6.36003C29.5174 5.88411 30.0607 5.4803 30.6691 5.1486C31.2919 4.81689 31.9366 4.65104 32.6029 4.65104C33.2982 4.65104 33.8559 4.79526 34.276 5.0837C34.6961 5.35771 35.0148 5.79037 35.2321 6.38166C35.797 5.84806 36.4054 5.42982 37.0573 5.12696C37.7236 4.80968 38.3682 4.65104 38.9911 4.65104C40.0196 4.65104 40.7729 4.89621 41.2509 5.38656C41.7434 5.8769 41.9897 6.64847 41.9897 7.70126V14.0397C41.9897 14.6021 42.2504 14.9554 42.7719 15.0997L43.0109 15.1646V15.3809H37.9916V15.1646L38.2089 15.0997C38.4841 15.0131 38.6724 14.8833 38.7738 14.7103C38.8897 14.5372 38.9477 14.3065 38.9477 14.018V7.3984C38.9477 6.79269 38.839 6.38166 38.6217 6.16534C38.4044 5.93459 38.0568 5.81921 37.5788 5.81921C37.2021 5.81921 36.8327 5.90574 36.4706 6.07881C36.1229 6.23745 35.7536 6.48262 35.3624 6.81432C35.4349 7.04507 35.4783 7.29745 35.4928 7.57146C35.5218 7.84548 35.5363 8.13392 35.5363 8.43678V14.0397C35.5508 14.6021 35.8115 14.9554 36.3185 15.0997L36.5141 15.1646V15.3809H31.473V15.1646L31.7772 15.078C32.0525 14.9915 32.2408 14.8689 32.3422 14.7103C32.4581 14.5372 32.516 14.3065 32.516 14.018V7.42004C32.516 6.84316 32.4074 6.43214 32.1901 6.18697C31.9873 5.9418 31.6324 5.81921 31.1254 5.81921C30.7922 5.81921 30.459 5.90574 30.1259 6.07881C29.7927 6.23745 29.445 6.47541 29.0829 6.79269V14.0397C29.0829 14.6021 29.3364 14.9554 29.8434 15.0997L30.0389 15.1646V15.3809H24.9327Z" fill="white"/>
<path d="M43.9038 15.3809V15.1646L44.1863 15.0997C44.4615 15.0276 44.6788 14.905 44.8381 14.7319C44.9975 14.5444 45.0772 14.3065 45.0772 14.018C45.0772 13.4844 45.0772 12.958 45.0772 12.4388C45.0916 11.9052 45.0989 11.3716 45.0989 10.838V5.40819H43.8821V5.17023L44.3601 5.0837C44.6498 5.05485 44.8599 4.9539 44.9902 4.78084C45.1206 4.60778 45.2148 4.36982 45.2727 4.06696C45.4176 3.50451 45.6276 3.01416 45.9028 2.59593C46.1926 2.16328 46.5185 1.76667 46.8806 1.40613C47.4311 0.886943 48.0105 0.526397 48.6189 0.324491C49.2418 0.108164 49.8502 0 50.4441 0C51.0236 0 51.5523 0.122586 52.0303 0.367757C52.5083 0.598506 52.7474 0.987896 52.7474 1.53593C52.7474 1.92532 52.6315 2.23538 52.3997 2.46613C52.1679 2.68246 51.842 2.79063 51.4219 2.79063C51.0743 2.79063 50.7556 2.69688 50.4659 2.5094C50.1761 2.32192 49.8937 1.99021 49.6184 1.51429L49.3142 1.14654C49.1549 0.94463 48.9956 0.850888 48.8362 0.865311C48.6769 0.865311 48.561 0.980685 48.4886 1.21143C48.3872 1.7162 48.3075 2.30749 48.2495 2.98532C48.2061 3.66315 48.1843 4.32655 48.1843 4.97553H50.618V5.40819H48.1843V13.9748C48.1843 14.5228 48.4741 14.8761 49.0535 15.0348L49.5967 15.1646V15.3809H43.9038Z" fill="white"/>
<path d="M56.5511 15.7054C55.4501 15.7054 54.4941 15.4818 53.6829 15.0348C52.8717 14.5733 52.2415 13.9243 51.7925 13.0878C51.3579 12.2514 51.1406 11.2707 51.1406 10.1458C51.1406 9.02086 51.3724 8.04739 51.8359 7.22534C52.314 6.4033 52.9586 5.76874 53.7698 5.32166C54.5955 4.87458 55.5226 4.65104 56.5511 4.65104C57.5795 4.65104 58.4994 4.87458 59.3106 5.32166C60.1218 5.75431 60.7592 6.38166 61.2227 7.20371C61.7007 8.02575 61.9397 9.00644 61.9397 10.1458C61.9397 11.2851 61.7152 12.273 61.2662 13.1095C60.8316 13.9315 60.2087 14.5733 59.3975 15.0348C58.6008 15.4818 57.652 15.7054 56.5511 15.7054ZM56.5511 15.2727C57.0581 15.2727 57.4636 15.1285 57.7678 14.8401C58.072 14.5516 58.2893 14.0397 58.4197 13.3041C58.5646 12.5686 58.637 11.5303 58.637 10.189C58.637 8.83338 58.5646 7.78779 58.4197 7.05228C58.2893 6.31677 58.072 5.80479 57.7678 5.51635C57.4636 5.22792 57.0581 5.0837 56.5511 5.0837C56.044 5.0837 55.6312 5.22792 55.3125 5.51635C55.0083 5.80479 54.7838 6.31677 54.6389 7.05228C54.5086 7.78779 54.4434 8.83338 54.4434 10.189C54.4434 11.5303 54.5086 12.5686 54.6389 13.3041C54.7838 14.0397 55.0083 14.5516 55.3125 14.8401C55.6312 15.1285 56.044 15.2727 56.5511 15.2727Z" fill="white"/>
<path d="M62.8941 15.3809V15.1646L63.22 15.078C63.5097 14.9915 63.7053 14.8617 63.8067 14.6886C63.9226 14.5156 63.9805 14.292 63.9805 14.018V7.24697C63.9805 6.92969 63.9226 6.69894 63.8067 6.55473C63.7053 6.39609 63.5097 6.28792 63.22 6.23023L62.8941 6.1437V5.92738L66.6314 4.67268L66.8487 4.889L67.0443 6.74942V6.92248C67.2471 6.51867 67.5078 6.15091 67.8265 5.81921C68.1597 5.47309 68.5218 5.19186 68.9129 4.97553C69.3185 4.75921 69.7169 4.65104 70.108 4.65104C70.6585 4.65104 71.0785 4.80247 71.3683 5.10533C71.658 5.40819 71.8028 5.79037 71.8028 6.25187C71.8028 6.74221 71.658 7.12439 71.3683 7.3984C71.093 7.658 70.7598 7.78779 70.3687 7.78779C69.7603 7.78779 69.2244 7.48493 68.7608 6.87922L68.7174 6.83595C68.5725 6.63405 68.4059 6.52588 68.2176 6.51146C68.0293 6.48262 67.8555 6.56915 67.6961 6.77105C67.5513 6.90085 67.4281 7.05949 67.3267 7.24697C67.2398 7.42004 67.1529 7.62194 67.066 7.85269V13.8882C67.066 14.4651 67.3195 14.8257 67.8265 14.9699L68.5218 15.1646V15.3809H62.8941Z" fill="white"/>
<path d="M76.8046 15.7054C75.8776 15.7054 75.1533 15.4746 74.6318 15.0131C74.1248 14.5516 73.8713 13.8161 73.8713 12.8066V5.40819H72.372V5.19186L72.8935 5.10533C73.3426 5.00438 73.7264 4.86016 74.0451 4.67268C74.3783 4.48519 74.7042 4.23281 75.0229 3.91553L76.8046 1.94695H77.0219L76.9567 4.97553H79.3904V5.40819H76.935V13.196C76.935 13.7007 77.0437 14.0829 77.2609 14.3425C77.4927 14.6021 77.7824 14.7319 78.1301 14.7319C78.4343 14.7319 78.7023 14.6598 78.9341 14.5156C79.1658 14.3569 79.3976 14.1478 79.6294 13.8882L79.8466 14.1046C79.5569 14.5949 79.1586 14.9843 78.6516 15.2727C78.1446 15.5612 77.5289 15.7054 76.8046 15.7054Z" fill="white"/>
<path d="M83.1348 3.52614C82.6423 3.52614 82.2222 3.37471 81.8745 3.07185C81.5414 2.75457 81.3748 2.35797 81.3748 1.88205C81.3748 1.39171 81.5414 0.995106 81.8745 0.692248C82.2222 0.389389 82.6423 0.23796 83.1348 0.23796C83.6273 0.23796 84.0402 0.389389 84.3733 0.692248C84.7065 0.995106 84.8731 1.39171 84.8731 1.88205C84.8731 2.35797 84.7065 2.75457 84.3733 3.07185C84.0402 3.37471 83.6273 3.52614 83.1348 3.52614ZM80.5708 15.3809V15.1646L80.875 15.078C81.1647 14.9915 81.3603 14.8617 81.4617 14.6886C81.5776 14.5156 81.6355 14.2848 81.6355 13.9964V7.22534C81.6355 6.92248 81.5776 6.69894 81.4617 6.55473C81.3603 6.39609 81.1647 6.28792 80.875 6.23023L80.5708 6.16534V5.94901L84.5472 4.67268L84.7644 4.889L84.6993 7.96085V14.018C84.6993 14.3065 84.75 14.5372 84.8514 14.7103C84.9672 14.8833 85.1628 15.0131 85.438 15.0997L85.6553 15.1646V15.3809H80.5708Z" fill="white"/>
<path d="M86.6173 15.3809V15.1646L86.9215 15.078C87.4285 14.9338 87.682 14.5805 87.682 14.018V7.24697C87.682 6.92969 87.6313 6.69894 87.5299 6.55473C87.4285 6.39609 87.233 6.28792 86.9432 6.23023L86.6173 6.1437V5.92738L90.3329 4.67268L90.5502 4.889L90.724 6.18697C91.231 5.73989 91.8032 5.37213 92.4406 5.0837C93.078 4.79526 93.7081 4.65104 94.331 4.65104C95.287 4.65104 96.0186 4.91064 96.5256 5.42982C97.047 5.94901 97.3078 6.74221 97.3078 7.80942V14.0397C97.3078 14.6021 97.583 14.9554 98.1335 15.0997L98.329 15.1646V15.3809H93.2011V15.1646L93.4836 15.078C93.9906 14.9194 94.2441 14.5661 94.2441 14.018V7.11718C94.2441 6.19418 93.7805 5.73268 92.8534 5.73268C92.2161 5.73268 91.5207 6.04996 90.7675 6.68452V14.0397C90.7675 14.6021 91.021 14.9554 91.528 15.0997L91.7235 15.1646V15.3809H86.6173Z" fill="white"/>
<path d="M103.916 11.6384C102.916 11.6384 102.069 11.4726 101.374 11.1409V11.8764C101.374 12.3235 101.598 12.5903 102.047 12.6768L106.132 13.4339C106.813 13.5637 107.429 13.7368 107.979 13.9531C108.53 14.155 108.972 14.4507 109.305 14.8401C109.638 15.215 109.804 15.7342 109.804 16.3976C109.804 17.1043 109.573 17.7533 109.109 18.3446C108.646 18.9503 107.958 19.4334 107.045 19.794C106.147 20.1689 105.024 20.3564 103.677 20.3564C102.518 20.3564 101.598 20.2338 100.917 19.9887C100.237 19.7579 99.7513 19.4551 99.4616 19.0801C99.1864 18.7051 99.0488 18.3085 99.0488 17.8903C99.0488 17.3711 99.2226 16.8447 99.5703 16.3111C99.9324 15.7919 100.374 15.3737 100.896 15.0564C100.447 14.8833 100.121 14.6598 99.9179 14.3858C99.7151 14.1118 99.6137 13.8161 99.6137 13.4988C99.6137 13.2104 99.6862 12.9436 99.831 12.6984C99.9904 12.4388 100.179 12.1792 100.396 11.9196L101.113 11.0111C100.056 10.4054 99.5268 9.45352 99.5268 8.15555C99.5268 7.11718 99.8962 6.2735 100.635 5.62452C101.388 4.97553 102.489 4.65104 103.938 4.65104C104.676 4.65104 105.321 4.73757 105.872 4.91064C106.437 5.0837 106.9 5.32887 107.262 5.64615C107.726 5.57404 108.16 5.45867 108.566 5.30003C108.986 5.12696 109.363 4.89621 109.696 4.60778L110 4.8241V5.92738H107.545C108.066 6.50425 108.327 7.24697 108.327 8.15555C108.327 9.16508 107.95 10.0015 107.197 10.665C106.458 11.3139 105.365 11.6384 103.916 11.6384ZM103.894 11.2058C104.474 11.2058 104.894 10.9678 105.155 10.4919C105.43 10.016 105.567 9.22277 105.567 8.11228C105.567 7.0018 105.43 6.22302 105.155 5.77595C104.894 5.31445 104.488 5.0837 103.938 5.0837C103.402 5.0837 102.996 5.32166 102.721 5.79758C102.446 6.25908 102.308 7.04507 102.308 8.15555C102.308 9.26603 102.431 10.052 102.677 10.5135C102.938 10.975 103.344 11.2058 103.894 11.2058ZM100.657 17.198C100.657 18.0489 100.917 18.6907 101.439 19.1234C101.975 19.556 102.815 19.7723 103.959 19.7723C105.162 19.7723 106.067 19.5776 106.676 19.1883C107.284 18.7989 107.588 18.2508 107.588 17.5442C107.588 17.1404 107.436 16.8159 107.132 16.5707C106.842 16.3255 106.342 16.138 105.633 16.0082L101.7 15.2727C101.584 15.2439 101.468 15.215 101.352 15.1862C101.149 15.4746 100.983 15.7991 100.852 16.1597C100.722 16.5346 100.657 16.8808 100.657 17.198Z" fill="white"/>
<path d="M41.2119 25.2816V17.1492H42.0175V21.8749L46.5173 17.1377H47.4034L44.066 20.7164L47.576 25.2816H46.6669L43.5481 21.1982L42.0175 22.7811V25.2816H41.2119Z" fill="white"/>
<path d="M50.6756 25.6716C50.2459 25.6716 49.847 25.5913 49.4787 25.4307C49.1104 25.2624 48.792 25.0369 48.5235 24.7539C48.255 24.4634 48.044 24.1307 47.8905 23.756C47.7448 23.3813 47.6719 22.9799 47.6719 22.5517C47.6719 21.9934 47.7985 21.4811 48.0517 21.0147C48.3125 20.5482 48.6693 20.1773 49.1219 19.9021C49.5746 19.6191 50.0886 19.4777 50.6641 19.4777C51.2548 19.4777 51.7689 19.6191 52.2062 19.9021C52.6512 20.185 53.0003 20.5597 53.2535 21.0261C53.5066 21.4849 53.6332 21.9896 53.6332 22.5402C53.6332 22.6014 53.6332 22.6625 53.6332 22.7237C53.6332 22.7772 53.6294 22.8193 53.6217 22.8499H48.489C48.5273 23.2781 48.6463 23.6604 48.8457 23.9969C49.0529 24.3257 49.3176 24.5895 49.6398 24.7883C49.9697 24.9795 50.3265 25.0751 50.7101 25.0751C51.1014 25.0751 51.4696 24.9757 51.8149 24.7769C52.1678 24.5781 52.4133 24.3181 52.5514 23.9969L53.2304 24.1804C53.1077 24.4634 52.9197 24.7195 52.6665 24.9489C52.4133 25.1783 52.1141 25.358 51.7689 25.488C51.4313 25.6104 51.0669 25.6716 50.6756 25.6716ZM48.466 22.2879H52.8967C52.866 21.852 52.7471 21.4696 52.5399 21.1408C52.3405 20.812 52.0758 20.5559 51.7459 20.3723C51.4236 20.1812 51.0669 20.0856 50.6756 20.0856C50.2843 20.0856 49.9275 20.1812 49.6053 20.3723C49.2831 20.5559 49.0184 20.8158 48.8112 21.1523C48.6117 21.4811 48.4966 21.8596 48.466 22.2879Z" fill="white"/>
<path d="M57.43 25.6716C57.0004 25.6716 56.6014 25.5913 56.2331 25.4307C55.8649 25.2624 55.5465 25.0369 55.2779 24.7539C55.0094 24.4634 54.7984 24.1307 54.645 23.756C54.4992 23.3813 54.4263 22.9799 54.4263 22.5517C54.4263 21.9934 54.5529 21.4811 54.8061 21.0147C55.0669 20.5482 55.4237 20.1773 55.8764 19.9021C56.329 19.6191 56.8431 19.4777 57.4185 19.4777C58.0093 19.4777 58.5233 19.6191 58.9606 19.9021C59.4056 20.185 59.7547 20.5597 60.0079 21.0261C60.2611 21.4849 60.3877 21.9896 60.3877 22.5402C60.3877 22.6014 60.3877 22.6625 60.3877 22.7237C60.3877 22.7772 60.3838 22.8193 60.3761 22.8499H55.2434C55.2818 23.2781 55.4007 23.6604 55.6002 23.9969C55.8073 24.3257 56.072 24.5895 56.3942 24.7883C56.7242 24.9795 57.0809 25.0751 57.4645 25.0751C57.8558 25.0751 58.2241 24.9757 58.5693 24.7769C58.9223 24.5781 59.1678 24.3181 59.3059 23.9969L59.9849 24.1804C59.8621 24.4634 59.6741 24.7195 59.421 24.9489C59.1678 25.1783 58.8685 25.358 58.5233 25.488C58.1857 25.6104 57.8213 25.6716 57.43 25.6716ZM55.2204 22.2879H59.6511C59.6204 21.852 59.5015 21.4696 59.2944 21.1408C59.0949 20.812 58.8302 20.5559 58.5003 20.3723C58.178 20.1812 57.8213 20.0856 57.43 20.0856C57.0387 20.0856 56.682 20.1812 56.3597 20.3723C56.0375 20.5559 55.7728 20.8158 55.5656 21.1523C55.3662 21.4811 55.2511 21.8596 55.2204 22.2879Z" fill="white"/>
<path d="M64.6563 25.6716C64.1576 25.6716 63.7087 25.5416 63.3098 25.2816C62.9185 25.0216 62.6078 24.7004 62.3776 24.3181V28H61.595V19.5809H62.2971V20.7394C62.5349 20.3647 62.8533 20.0626 63.2522 19.8332C63.6512 19.5962 64.077 19.4777 64.5297 19.4777C64.944 19.4777 65.3238 19.5656 65.669 19.7415C66.0143 19.9097 66.3135 20.1391 66.5667 20.4297C66.8198 20.7203 67.0155 21.0529 67.1536 21.4276C67.2994 21.7946 67.3723 22.177 67.3723 22.5746C67.3723 23.1328 67.2572 23.649 67.027 24.1231C66.8045 24.5895 66.4899 24.9642 66.0833 25.2472C65.6767 25.5301 65.201 25.6716 64.6563 25.6716ZM64.4376 24.9833C64.7675 24.9833 65.0629 24.9183 65.3238 24.7883C65.5846 24.6507 65.8071 24.4672 65.9912 24.2378C66.1831 24.0084 66.3288 23.7522 66.4286 23.4693C66.5283 23.1787 66.5782 22.8805 66.5782 22.5746C66.5782 22.2534 66.5206 21.9476 66.4055 21.657C66.2981 21.3664 66.1409 21.1102 65.9337 20.8885C65.7265 20.6667 65.4887 20.4909 65.2202 20.3609C64.9517 20.2309 64.6601 20.1659 64.3455 20.1659C64.1461 20.1659 63.9389 20.2041 63.7241 20.2806C63.5093 20.357 63.3021 20.4679 63.1026 20.6132C62.9108 20.7508 62.7497 20.9076 62.6193 21.0835C62.4889 21.2594 62.4083 21.4467 62.3776 21.6455V23.4808C62.5004 23.7637 62.6653 24.0198 62.8725 24.2493C63.0796 24.471 63.3175 24.6507 63.586 24.7883C63.8622 24.9183 64.1461 24.9833 64.4376 24.9833Z" fill="white"/>
<path d="M70.6658 25.6716C70.1748 25.6716 69.7183 25.5913 69.2963 25.4307C68.8743 25.2701 68.5099 25.0254 68.203 24.6966L68.5252 24.146C68.8628 24.4595 69.2004 24.6889 69.538 24.8342C69.8832 24.9719 70.2477 25.0407 70.6313 25.0407C71.0993 25.0407 71.4791 24.9489 71.7706 24.7654C72.0622 24.5742 72.2079 24.3028 72.2079 23.951C72.2079 23.714 72.135 23.5343 71.9893 23.4119C71.8512 23.2819 71.6478 23.1787 71.3793 23.1022C71.1185 23.0181 70.8039 22.9302 70.4356 22.8384C70.0213 22.7237 69.6722 22.6052 69.3884 22.4828C69.1122 22.3528 68.9012 22.1923 68.7554 22.0011C68.6173 21.8023 68.5483 21.5461 68.5483 21.2326C68.5483 20.8426 68.6442 20.5214 68.836 20.2691C69.0354 20.0091 69.304 19.8141 69.6416 19.6841C69.9868 19.5465 70.3704 19.4777 70.7924 19.4777C71.2527 19.4777 71.6594 19.5503 72.0123 19.6956C72.3652 19.8409 72.6529 20.0435 72.8754 20.3035L72.4956 20.8311C72.2808 20.5864 72.0238 20.4067 71.7246 20.292C71.433 20.1697 71.107 20.1085 70.7464 20.1085C70.5008 20.1085 70.2669 20.1429 70.0444 20.2117C69.8219 20.2729 69.6377 20.38 69.4919 20.5329C69.3538 20.6782 69.2848 20.8808 69.2848 21.1408C69.2848 21.3549 69.3385 21.5232 69.4459 21.6455C69.5533 21.7602 69.7144 21.8596 69.9293 21.9437C70.1441 22.0202 70.4088 22.1043 70.7233 22.1961C71.176 22.3184 71.5711 22.4446 71.9087 22.5746C72.2463 22.697 72.5071 22.8575 72.6913 23.0564C72.8754 23.2552 72.9675 23.5343 72.9675 23.8937C72.9675 24.4519 72.7565 24.8878 72.3345 25.2013C71.9125 25.5148 71.3563 25.6716 70.6658 25.6716Z" fill="white"/>
<path d="M73.7777 23.8363C73.7777 23.4616 73.8851 23.1405 74.0999 22.8728C74.3147 22.5975 74.6101 22.3873 74.986 22.242C75.3696 22.089 75.8108 22.0126 76.3095 22.0126C76.601 22.0126 76.9041 22.0355 77.2187 22.0814C77.5332 22.1273 77.8133 22.1961 78.0588 22.2879V21.7832C78.0588 21.2785 77.9092 20.877 77.6099 20.5788C77.3107 20.2806 76.8964 20.1315 76.367 20.1315C76.0448 20.1315 75.7264 20.1926 75.4118 20.315C75.105 20.4297 74.7827 20.6017 74.4451 20.8311L74.1459 20.2806C74.5372 20.0129 74.9208 19.8141 75.2968 19.6841C75.6727 19.5465 76.0563 19.4777 76.4476 19.4777C77.1841 19.4777 77.7672 19.6879 78.1969 20.1085C78.6265 20.5291 78.8413 21.1102 78.8413 21.852V24.6163C78.8413 24.7234 78.8644 24.8036 78.9104 24.8572C78.9564 24.9031 79.0293 24.9298 79.129 24.9375V25.5569C79.0447 25.5645 78.9718 25.5721 78.9104 25.5798C78.849 25.5874 78.803 25.5874 78.7723 25.5798C78.5805 25.5721 78.4347 25.511 78.335 25.3963C78.2352 25.2816 78.1815 25.1592 78.1739 25.0292L78.1623 24.5934C77.8938 24.9375 77.5447 25.2051 77.1151 25.3963C76.6854 25.5798 76.2481 25.6716 75.8031 25.6716C75.4195 25.6716 75.0704 25.5913 74.7559 25.4307C74.449 25.2624 74.2073 25.0407 74.0308 24.7654C73.862 24.4825 73.7777 24.1728 73.7777 23.8363ZM77.7941 24.2951C77.8785 24.1881 77.9437 24.0848 77.9897 23.9854C78.0357 23.886 78.0588 23.7981 78.0588 23.7216V22.8499C77.7979 22.7505 77.5255 22.674 77.2417 22.6205C76.9655 22.567 76.6854 22.5402 76.4016 22.5402C75.8415 22.5402 75.3888 22.6511 75.0436 22.8728C74.6983 23.0946 74.5257 23.3966 74.5257 23.779C74.5257 24.0007 74.5832 24.211 74.6983 24.4098C74.8134 24.601 74.9822 24.7616 75.2047 24.8916C75.4272 25.0139 75.688 25.0751 75.9873 25.0751C76.3632 25.0751 76.7123 25.0025 77.0345 24.8572C77.3644 24.7119 77.6176 24.5245 77.7941 24.2951Z" fill="white"/>
<path d="M84.8133 25.5569L82.5922 22.4943L81.3147 23.6872V25.5569H80.5322V17.1836H81.3147V22.8499L84.7097 19.5924H85.5728L83.1216 22.0355L85.6649 25.5569H84.8133Z" fill="white"/>
<path d="M88.9095 25.6716C88.4798 25.6716 88.0809 25.5913 87.7126 25.4307C87.3443 25.2624 87.0259 25.0369 86.7574 24.7539C86.4889 24.4634 86.2779 24.1307 86.1244 23.756C85.9787 23.3813 85.9058 22.9799 85.9058 22.5517C85.9058 21.9934 86.0324 21.4811 86.2856 21.0147C86.5464 20.5482 86.9032 20.1773 87.3558 19.9021C87.8085 19.6191 88.3225 19.4777 88.8979 19.4777C89.4887 19.4777 90.0028 19.6191 90.4401 19.9021C90.8851 20.185 91.2342 20.5597 91.4874 21.0261C91.7405 21.4849 91.8671 21.9896 91.8671 22.5402C91.8671 22.6014 91.8671 22.6625 91.8671 22.7237C91.8671 22.7772 91.8633 22.8193 91.8556 22.8499H86.7229C86.7612 23.2781 86.8801 23.6604 87.0796 23.9969C87.2868 24.3257 87.5515 24.5895 87.8737 24.7883C88.2036 24.9795 88.5604 25.0751 88.944 25.0751C89.3353 25.0751 89.7035 24.9757 90.0488 24.7769C90.4017 24.5781 90.6472 24.3181 90.7853 23.9969L91.4643 24.1804C91.3416 24.4634 91.1536 24.7195 90.9004 24.9489C90.6472 25.1783 90.348 25.358 90.0028 25.488C89.6652 25.6104 89.3008 25.6716 88.9095 25.6716ZM86.6998 22.2879H91.1306C91.0999 21.852 90.981 21.4696 90.7738 21.1408C90.5743 20.812 90.3096 20.5559 89.9797 20.3723C89.6575 20.1812 89.3008 20.0856 88.9095 20.0856C88.5182 20.0856 88.1614 20.1812 87.8392 20.3723C87.517 20.5559 87.2523 20.8158 87.0451 21.1523C86.8456 21.4811 86.7305 21.8596 86.6998 22.2879Z" fill="white"/>
<path d="M95.0424 25.6716C94.5514 25.6716 94.0949 25.5913 93.6729 25.4307C93.251 25.2701 92.8865 25.0254 92.5797 24.6966L92.9019 24.146C93.2395 24.4595 93.577 24.6889 93.9146 24.8342C94.2599 24.9719 94.6243 25.0407 95.0079 25.0407C95.4759 25.0407 95.8557 24.9489 96.1472 24.7654C96.4388 24.5742 96.5846 24.3028 96.5846 23.951C96.5846 23.714 96.5117 23.5343 96.3659 23.4119C96.2278 23.2819 96.0245 23.1787 95.756 23.1022C95.4951 23.0181 95.1805 22.9302 94.8123 22.8384C94.398 22.7237 94.0489 22.6052 93.765 22.4828C93.4888 22.3528 93.2778 22.1923 93.132 22.0011C92.9939 21.8023 92.9249 21.5461 92.9249 21.2326C92.9249 20.8426 93.0208 20.5214 93.2126 20.2691C93.4121 20.0091 93.6806 19.8141 94.0182 19.6841C94.3634 19.5465 94.7471 19.4777 95.169 19.4777C95.6294 19.4777 96.036 19.5503 96.3889 19.6956C96.7418 19.8409 97.0295 20.0435 97.252 20.3035L96.8723 20.8311C96.6575 20.5864 96.4004 20.4067 96.1012 20.292C95.8097 20.1697 95.4836 20.1085 95.123 20.1085C94.8775 20.1085 94.6435 20.1429 94.421 20.2117C94.1985 20.2729 94.0144 20.38 93.8686 20.5329C93.7305 20.6782 93.6614 20.8808 93.6614 21.1408C93.6614 21.3549 93.7151 21.5232 93.8225 21.6455C93.93 21.7602 94.0911 21.8596 94.3059 21.9437C94.5207 22.0202 94.7854 22.1043 95.1 22.1961C95.5526 22.3184 95.9478 22.4446 96.2853 22.5746C96.6229 22.697 96.8838 22.8575 97.0679 23.0564C97.2521 23.2552 97.3441 23.5343 97.3441 23.8937C97.3441 24.4519 97.1331 24.8878 96.7112 25.2013C96.2892 25.5148 95.7329 25.6716 95.0424 25.6716Z" fill="white"/>
</svg>
